<svg xmlns="http://www.w3.org/2000/svg" viewBox="0 0 400 300" width="400" height="300">
<defs><linearGradient id="g" x1="0" y1="0" x2="1" y2="1"><stop offset="0" stop-color="#fff0cf"/><stop offset="1" stop-color="#f9d9a0"/></linearGradient></defs>
<rect width="400" height="300" fill="url(#g)"/>
<circle cx="340" cy="50" r="80" fill="#fff" opacity=".22"/><circle cx="40" cy="270" r="60" fill="#fff" opacity=".15"/>
<ellipse cx="200" cy="244" rx="160" ry="24" fill="#fff" opacity=".95"/>
<ellipse cx="200" cy="238" rx="124" ry="16" fill="#000" opacity=".08"/>
<path d="M90 130V222A110 22 0 0 0 310 222V130Z" fill="#e8b95c"/>
<path d="M90 130V222A110 22 0 0 0 130 238V145Z" fill="#fff" opacity=".12"/>
<ellipse cx="200" cy="130" rx="110" ry="24" fill="#efc97a"/><circle cx="218.0" cy="130.0" r="3" fill="#c0392b"/><circle cx="177.1" cy="134.2" r="3" fill="#c0392b"/><circle cx="203.8" cy="121.2" r="3" fill="#c0392b"/><circle cx="234.7" cy="139.0" r="3" fill="#c0392b"/><circle cx="131.1" cy="127.6" r="3" fill="#c0392b"/><circle cx="270.0" cy="121.1" r="3" fill="#c0392b"/><circle cx="175.1" cy="148.5" r="3" fill="#c0392b"/><circle cx="186.6" cy="124.9" r="3" fill="#c0392b"/><circle cx="239.4" cy="132.9" r="3" fill="#c0392b"/><circle cx="149.2" cy="134.2" r="3" fill="#c0392b"/><circle cx="228.8" cy="117.7" r="3" fill="#c0392b"/><circle cx="224.2" cy="145.5" r="3" fill="#c0392b"/><circle cx="118.7" cy="120.6" r="3" fill="#c0392b"/><circle cx="226.4" cy="128.8" r="3" fill="#c0392b"/>
<ellipse cx="170" cy="124" rx="40" ry="6" fill="#fff" opacity=".18"/>
</svg>
